# xmcd
#
# Track frame offsets:
#	150
#	15687
#	35573
#	52385
#	69748
#	87987
#	106370
#	123182
#	141553
#	157726
#	173263
#	193149
#	209961
#	227324
#	245563
#	263946
#	280758
#	299129
#
# Disc length: 4204 seconds
#
# Revision: 1
# Processed by: cddbd v1.5.2PL0 Copyright (c) Steve Scherf et al.
# Submitted via: audiograbber 1.83.01
#
DISCID=16106a12
DTITLE=Various Artist - Pop Hits Monthly 0502c
DYEAR=2005
DGENRE=karaoke
TTITLE0=If Heaven - Andy Griggs
TTITLE1=God's Will - Martina McBride
TTITLE2=Mockingbird - Toby Keith/Krystal Keith
TTITLE3=Paper Angels - Jimmy Wayne
TTITLE4=It's Getting Better All The Time - Brooks and Dunn
TTITLE5=The World Needs A Drink - Terri Clark
TTITLE6=I'll Take That As A Yes - Phil Vassar
TTITLE7=Baby Girl - Sugarland
TTITLE8=Gone - Montgomery Gentry
TTITLE9=If Heaven - Andy Griggs (vocal)
TTITLE10=God's Will - Martina McBride (vocal)
TTITLE11=Mockingbird - Toby Keith/Krystal Keith (vocal)
TTITLE12=Paper Angels - Jimmy Wayne (vocal)
TTITLE13=It's Getting Better All The Time - Brooks and Dunn (vocal)
TTITLE14=The World Needs A Drink - Terri Clark (vocal)
TTITLE15=I'll Take That As A Yes - Phil Vassar (vocal)
TTITLE16=Baby Girl - Sugarland (vocal)
TTITLE17=Gone - Montgomery Gentry (vocal)
EXTD=
EXTT0=
EXTT1=
EXTT2=
EXTT3=
EXTT4=
EXTT5=
EXTT6=
EXTT7=
EXTT8=
EXTT9=
EXTT10=
EXTT11=
EXTT12=
EXTT13=
EXTT14=
EXTT15=
EXTT16=
EXTT17=
PLAYORDER=
